<svg width="34" height="32" viewBox="0 0 34 32" fill="none" xmlns="http://www.w3.org/2000/svg">
<path d="M11.0223 1.20621L11.0148 1.20599H11.0074H10.8369C10.3921 1.20599 9.94766 1.23519 9.49963 1.29781H9.34888H9.31701L9.28539 1.30186C8.78862 1.36545 8.29386 1.4794 7.81389 1.6421C1.70245 3.61394 -0.410159 10.1281 1.40232 15.7194L1.40475 15.7269L1.4074 15.7343C2.42459 18.5656 4.06315 21.1338 6.19294 23.2452L6.19286 23.2452L6.20061 23.2526C9.24698 26.1463 12.578 28.7015 16.1561 30.8873L16.1565 30.8875L16.5595 31.1333L16.8166 31.29L17.0754 31.1361L17.4629 30.9056L17.4629 30.9057L17.47 30.9014C21.0349 28.7005 24.347 26.1455 27.3653 23.2672L27.3654 23.2672L27.3711 23.2616C29.5164 21.149 31.1539 18.5641 32.1555 15.732L32.1581 15.7246L32.1605 15.7171C33.9413 10.1295 31.832 3.61286 25.7783 1.67337C24.7939 1.34838 23.765 1.20615 22.7425 1.20599C20.5948 1.19138 18.5087 1.8544 16.7574 3.08253C16.7114 3.05541 16.6673 3.03009 16.6269 3.00691C16.6043 2.99397 16.5829 2.9817 16.563 2.97016C16.5218 2.94513 16.467 2.90603 16.3876 2.84929C16.3594 2.82916 16.3281 2.8068 16.2932 2.78206C16.1752 2.6984 16.0231 2.59332 15.8743 2.51515L15.8591 2.50717L15.8434 2.50025L15.2725 2.24874C14.9576 2.08012 14.6362 1.95624 14.3133 1.85094C14.2623 1.8156 14.2068 1.78421 14.1487 1.75701L14.048 1.70992H13.9368H13.9259C12.9873 1.40384 12.0194 1.23607 11.0223 1.20621ZM24.2002 8.39403L24.2002 8.39396L24.1921 8.39114C23.7998 8.25406 23.5993 7.83589 23.7241 7.45797C23.8663 7.07432 24.2801 6.87922 24.6507 7.00079C26.4484 7.67656 27.6301 9.41913 27.5883 11.3417L27.5882 11.3417V11.3526V11.5138C27.5539 11.8767 27.2467 12.1704 26.8798 12.1946C26.6629 12.1673 26.4785 12.0696 26.3638 11.9324C26.2327 11.7757 26.1654 11.5693 26.1839 11.3488L26.1857 11.3278V11.3068V11.2595C26.1857 9.98617 25.3931 8.83384 24.2002 8.39403Z" fill="#ECE2E2" stroke="#14205A"/>
</svg>
